<?xml version="1.0" encoding="utf-8"?>
<!-- Generator: Adobe Illustrator 27.1.1, SVG Export Plug-In . SVG Version: 6.00 Build 0)  -->
<svg version="1.1" id="Layer_1" xmlns="http://www.w3.org/2000/svg" xmlns:xlink="http://www.w3.org/1999/xlink" x="0px" y="0px"
	 viewBox="0 0 400 400" style="enable-background:new 0 0 400 400;" xml:space="preserve">
<style type="text/css">
	.st0{fill:#D25D29;}
</style>
<g>
	<g>
		<g>
			<path class="st0" d="M399,283.03c-9.33,1.52-18.91,2.41-28.62,2.66c-52.03,1.37-100.27-15.85-138.26-45.61
				c-13.36-10.47-25.45-22.5-36.03-35.81c-8.2,10.35-17.33,19.92-27.27,28.6c-36.37,31.72-83.64,51.45-135.67,52.82
				c-9.72,0.26-19.32-0.13-28.72-1.15c58.29-9.32,108.53-41.98,141.18-87.89C110.59,152.53,58.7,122.56,0,116.32
				c9.33-1.52,18.91-2.41,28.62-2.66c52.03-1.37,100.27,15.85,138.26,45.61c13.36,10.47,25.45,22.5,36.03,35.81
				c8.2-10.35,17.33-19.92,27.27-28.6c36.37-31.72,83.64-51.45,135.67-52.82c9.72-0.26,19.32,0.13,28.72,1.15
				c-58.29,9.32-108.53,41.98-141.18,87.89C288.41,246.82,340.3,276.79,399,283.03z"/>
		</g>
	</g>
</g>
</svg>
